<mxfile host="app.diagrams.net" modified="2024-02-08T02:45:32.684Z" agent="Mozilla/5.0 (Windows NT 10.0; Win64; x64; rv:122.0) Gecko/20100101 Firefox/122.0" etag="-rTu8F_VDjJL7N-0C3vP" version="23.1.2" type="device">
  <diagram name="Page-1" id="vBUcITAtlgeHCixn5il7">
    <mxGraphModel dx="1195" dy="622" grid="1" gridSize="10" guides="1" tooltips="1" connect="1" arrows="1" fold="1" page="1" pageScale="1" pageWidth="827" pageHeight="1169" math="0" shadow="0">
      <root>
        <mxCell id="0" />
        <mxCell id="1" parent="0" />
        <mxCell id="nm805aZOPaHZjVTuKpFu-17" style="edgeStyle=orthogonalEdgeStyle;rounded=0;orthogonalLoop=1;jettySize=auto;html=1;exitX=0.5;exitY=1;exitDx=0;exitDy=0;entryX=0.5;entryY=0;entryDx=0;entryDy=0;fontFamily=Roboto;fontSource=https%3A%2F%2Ffonts.googleapis.com%2Fcss%3Ffamily%3DRoboto;strokeColor=#6666FF;" edge="1" parent="1" source="nm805aZOPaHZjVTuKpFu-2" target="nm805aZOPaHZjVTuKpFu-9">
          <mxGeometry relative="1" as="geometry" />
        </mxCell>
        <mxCell id="nm805aZOPaHZjVTuKpFu-2" value="MVP rapid development" style="rounded=0;whiteSpace=wrap;html=1;fontFamily=Roboto;fontSource=https%3A%2F%2Ffonts.googleapis.com%2Fcss%3Ffamily%3DRoboto;fillColor=#76608a;strokeColor=#432D57;fontColor=#ffffff;" vertex="1" parent="1">
          <mxGeometry x="354" y="240" width="120" height="60" as="geometry" />
        </mxCell>
        <mxCell id="nm805aZOPaHZjVTuKpFu-44" style="edgeStyle=orthogonalEdgeStyle;rounded=0;orthogonalLoop=1;jettySize=auto;html=1;exitX=0.5;exitY=1;exitDx=0;exitDy=0;entryX=0.5;entryY=0;entryDx=0;entryDy=0;fontFamily=Roboto;fontSource=https%3A%2F%2Ffonts.googleapis.com%2Fcss%3Ffamily%3DRoboto;strokeColor=#6666FF;" edge="1" parent="1" source="nm805aZOPaHZjVTuKpFu-4" target="nm805aZOPaHZjVTuKpFu-11">
          <mxGeometry relative="1" as="geometry" />
        </mxCell>
        <mxCell id="nm805aZOPaHZjVTuKpFu-4" value="HE workflow triggers" style="rounded=0;whiteSpace=wrap;html=1;fontFamily=Roboto;fontSource=https%3A%2F%2Ffonts.googleapis.com%2Fcss%3Ffamily%3DRoboto;fillColor=#ffe6cc;strokeColor=#d79b00;" vertex="1" parent="1">
          <mxGeometry x="264" y="601" width="120" height="60" as="geometry" />
        </mxCell>
        <mxCell id="nm805aZOPaHZjVTuKpFu-25" style="edgeStyle=orthogonalEdgeStyle;rounded=0;orthogonalLoop=1;jettySize=auto;html=1;exitX=0.5;exitY=1;exitDx=0;exitDy=0;entryX=0.5;entryY=0;entryDx=0;entryDy=0;fontFamily=Roboto;fontSource=https%3A%2F%2Ffonts.googleapis.com%2Fcss%3Ffamily%3DRoboto;strokeColor=#6666FF;" edge="1" parent="1" source="nm805aZOPaHZjVTuKpFu-7" target="nm805aZOPaHZjVTuKpFu-24">
          <mxGeometry relative="1" as="geometry" />
        </mxCell>
        <mxCell id="nm805aZOPaHZjVTuKpFu-7" value="&lt;div&gt;&lt;font style=&quot;font-size: 12px;&quot;&gt;Stakeholders&#39;&lt;/font&gt;&lt;/div&gt;&lt;div&gt;&lt;font style=&quot;font-size: 12px;&quot;&gt;black box specs&lt;/font&gt;&lt;/div&gt;" style="shape=parallelogram;perimeter=parallelogramPerimeter;whiteSpace=wrap;html=1;fixedSize=1;fontFamily=Roboto;fontSource=https%3A%2F%2Ffonts.googleapis.com%2Fcss%3Ffamily%3DRoboto;fillColor=#fff2cc;strokeColor=#d6b656;" vertex="1" parent="1">
          <mxGeometry x="354" y="70" width="120" height="60" as="geometry" />
        </mxCell>
        <mxCell id="nm805aZOPaHZjVTuKpFu-15" style="edgeStyle=orthogonalEdgeStyle;rounded=0;orthogonalLoop=1;jettySize=auto;html=1;exitX=0.5;exitY=1;exitDx=0;exitDy=0;entryX=0.5;entryY=0;entryDx=0;entryDy=0;fontFamily=Roboto;fontSource=https%3A%2F%2Ffonts.googleapis.com%2Fcss%3Ffamily%3DRoboto;strokeColor=#6666FF;" edge="1" parent="1" source="nm805aZOPaHZjVTuKpFu-8" target="nm805aZOPaHZjVTuKpFu-7">
          <mxGeometry relative="1" as="geometry" />
        </mxCell>
        <mxCell id="nm805aZOPaHZjVTuKpFu-8" value="Project idea" style="rounded=1;whiteSpace=wrap;html=1;fontFamily=Roboto;fontSource=https%3A%2F%2Ffonts.googleapis.com%2Fcss%3Ffamily%3DRoboto;fillColor=#f8cecc;strokeColor=#b85450;" vertex="1" parent="1">
          <mxGeometry x="354" y="20" width="120" height="30" as="geometry" />
        </mxCell>
        <mxCell id="nm805aZOPaHZjVTuKpFu-18" style="edgeStyle=orthogonalEdgeStyle;rounded=0;orthogonalLoop=1;jettySize=auto;html=1;exitX=0;exitY=0.5;exitDx=0;exitDy=0;entryX=0;entryY=0.5;entryDx=0;entryDy=0;fontFamily=Roboto;fontSource=https%3A%2F%2Ffonts.googleapis.com%2Fcss%3Ffamily%3DRoboto;strokeColor=#6666FF;" edge="1" parent="1" source="nm805aZOPaHZjVTuKpFu-9" target="nm805aZOPaHZjVTuKpFu-7">
          <mxGeometry relative="1" as="geometry">
            <Array as="points">
              <mxPoint x="230" y="351" />
              <mxPoint x="230" y="100" />
            </Array>
          </mxGeometry>
        </mxCell>
        <mxCell id="nm805aZOPaHZjVTuKpFu-20" value="&lt;div&gt;No&lt;/div&gt;" style="edgeLabel;html=1;align=center;verticalAlign=middle;resizable=0;points=[];fontFamily=Roboto;fontSource=https%3A%2F%2Ffonts.googleapis.com%2Fcss%3Ffamily%3DRoboto;labelBorderColor=default;" vertex="1" connectable="0" parent="nm805aZOPaHZjVTuKpFu-18">
          <mxGeometry x="-0.8414" y="1" relative="1" as="geometry">
            <mxPoint x="6" y="-1" as="offset" />
          </mxGeometry>
        </mxCell>
        <mxCell id="nm805aZOPaHZjVTuKpFu-54" style="edgeStyle=orthogonalEdgeStyle;rounded=0;orthogonalLoop=1;jettySize=auto;html=1;exitX=0.5;exitY=1;exitDx=0;exitDy=0;entryX=0.5;entryY=0;entryDx=0;entryDy=0;fontFamily=Roboto;fontSource=https%3A%2F%2Ffonts.googleapis.com%2Fcss%3Ffamily%3DRoboto;strokeColor=#6666FF;" edge="1" parent="1" source="nm805aZOPaHZjVTuKpFu-9" target="nm805aZOPaHZjVTuKpFu-53">
          <mxGeometry relative="1" as="geometry" />
        </mxCell>
        <mxCell id="nm805aZOPaHZjVTuKpFu-55" value="Yes" style="edgeLabel;html=1;align=center;verticalAlign=middle;resizable=0;points=[];fontFamily=Roboto;fontSource=https%3A%2F%2Ffonts.googleapis.com%2Fcss%3Ffamily%3DRoboto;labelBorderColor=default;" vertex="1" connectable="0" parent="nm805aZOPaHZjVTuKpFu-54">
          <mxGeometry x="-0.1833" relative="1" as="geometry">
            <mxPoint y="-2" as="offset" />
          </mxGeometry>
        </mxCell>
        <mxCell id="nm805aZOPaHZjVTuKpFu-9" value="&lt;div&gt;Blackbox&amp;nbsp;&lt;/div&gt;&lt;div&gt;specs met&lt;br&gt;&lt;/div&gt;" style="rhombus;whiteSpace=wrap;html=1;fontFamily=Roboto;fontSource=https%3A%2F%2Ffonts.googleapis.com%2Fcss%3Ffamily%3DRoboto;fillColor=#d5e8d4;strokeColor=#82b366;" vertex="1" parent="1">
          <mxGeometry x="354" y="321" width="120" height="60" as="geometry" />
        </mxCell>
        <mxCell id="nm805aZOPaHZjVTuKpFu-38" style="edgeStyle=orthogonalEdgeStyle;rounded=0;orthogonalLoop=1;jettySize=auto;html=1;exitX=0.5;exitY=1;exitDx=0;exitDy=0;entryX=0.5;entryY=0;entryDx=0;entryDy=0;fontFamily=Roboto;fontSource=https%3A%2F%2Ffonts.googleapis.com%2Fcss%3Ffamily%3DRoboto;strokeColor=#6666FF;" edge="1" parent="1" source="nm805aZOPaHZjVTuKpFu-10" target="nm805aZOPaHZjVTuKpFu-14">
          <mxGeometry relative="1" as="geometry" />
        </mxCell>
        <mxCell id="nm805aZOPaHZjVTuKpFu-10" value="Project becomes active on GitHub" style="rounded=0;whiteSpace=wrap;html=1;fontFamily=Roboto;fontSource=https%3A%2F%2Ffonts.googleapis.com%2Fcss%3Ffamily%3DRoboto;fillColor=#dae8fc;strokeColor=#6c8ebf;" vertex="1" parent="1">
          <mxGeometry x="444" y="601" width="120" height="60" as="geometry" />
        </mxCell>
        <mxCell id="nm805aZOPaHZjVTuKpFu-45" style="edgeStyle=orthogonalEdgeStyle;rounded=0;orthogonalLoop=1;jettySize=auto;html=1;exitX=0.5;exitY=1;exitDx=0;exitDy=0;entryX=0.5;entryY=0;entryDx=0;entryDy=0;fontFamily=Roboto;fontSource=https%3A%2F%2Ffonts.googleapis.com%2Fcss%3Ffamily%3DRoboto;strokeColor=#6666FF;" edge="1" parent="1" source="nm805aZOPaHZjVTuKpFu-11" target="nm805aZOPaHZjVTuKpFu-42">
          <mxGeometry relative="1" as="geometry" />
        </mxCell>
        <mxCell id="nm805aZOPaHZjVTuKpFu-11" value="HE workflow" style="rounded=0;whiteSpace=wrap;html=1;fontFamily=Roboto;fontSource=https%3A%2F%2Ffonts.googleapis.com%2Fcss%3Ffamily%3DRoboto;fillColor=#647687;fontColor=#ffffff;strokeColor=#314354;" vertex="1" parent="1">
          <mxGeometry x="264" y="681" width="120" height="60" as="geometry" />
        </mxCell>
        <mxCell id="nm805aZOPaHZjVTuKpFu-49" style="edgeStyle=orthogonalEdgeStyle;rounded=0;orthogonalLoop=1;jettySize=auto;html=1;exitX=0.5;exitY=1;exitDx=0;exitDy=0;entryX=0.5;entryY=0;entryDx=0;entryDy=0;fontFamily=Roboto;fontSource=https%3A%2F%2Ffonts.googleapis.com%2Fcss%3Ffamily%3DRoboto;strokeColor=#6666FF;" edge="1" parent="1" source="nm805aZOPaHZjVTuKpFu-13" target="nm805aZOPaHZjVTuKpFu-47">
          <mxGeometry relative="1" as="geometry">
            <mxPoint x="420" y="861" as="targetPoint" />
            <Array as="points">
              <mxPoint x="504" y="840" />
              <mxPoint x="420" y="840" />
            </Array>
          </mxGeometry>
        </mxCell>
        <mxCell id="nm805aZOPaHZjVTuKpFu-13" value="PCB compliant code completed" style="rounded=0;whiteSpace=wrap;html=1;fontFamily=Roboto;fontSource=https%3A%2F%2Ffonts.googleapis.com%2Fcss%3Ffamily%3DRoboto;fillColor=#dae8fc;strokeColor=#6c8ebf;" vertex="1" parent="1">
          <mxGeometry x="444" y="761" width="120" height="60" as="geometry" />
        </mxCell>
        <mxCell id="nm805aZOPaHZjVTuKpFu-40" style="edgeStyle=orthogonalEdgeStyle;rounded=0;orthogonalLoop=1;jettySize=auto;html=1;exitX=0.5;exitY=1;exitDx=0;exitDy=0;entryX=0.5;entryY=0;entryDx=0;entryDy=0;fontFamily=Roboto;fontSource=https%3A%2F%2Ffonts.googleapis.com%2Fcss%3Ffamily%3DRoboto;strokeColor=#6666FF;" edge="1" parent="1" source="nm805aZOPaHZjVTuKpFu-14">
          <mxGeometry relative="1" as="geometry">
            <mxPoint x="504" y="761" as="targetPoint" />
          </mxGeometry>
        </mxCell>
        <mxCell id="nm805aZOPaHZjVTuKpFu-14" value="Continuous GitHub issue based development" style="rounded=0;whiteSpace=wrap;html=1;fontFamily=Roboto;fontSource=https%3A%2F%2Ffonts.googleapis.com%2Fcss%3Ffamily%3DRoboto;fillColor=#dae8fc;strokeColor=#6c8ebf;" vertex="1" parent="1">
          <mxGeometry x="444" y="681" width="120" height="60" as="geometry" />
        </mxCell>
        <mxCell id="nm805aZOPaHZjVTuKpFu-26" style="edgeStyle=orthogonalEdgeStyle;rounded=0;orthogonalLoop=1;jettySize=auto;html=1;exitX=0.5;exitY=1;exitDx=0;exitDy=0;entryX=0.5;entryY=0;entryDx=0;entryDy=0;fontFamily=Roboto;fontSource=https%3A%2F%2Ffonts.googleapis.com%2Fcss%3Ffamily%3DRoboto;strokeColor=#6666FF;" edge="1" parent="1" source="nm805aZOPaHZjVTuKpFu-24" target="nm805aZOPaHZjVTuKpFu-2">
          <mxGeometry relative="1" as="geometry" />
        </mxCell>
        <mxCell id="nm805aZOPaHZjVTuKpFu-27" value="&lt;div&gt;Yes&lt;/div&gt;" style="edgeLabel;html=1;align=center;verticalAlign=middle;resizable=0;points=[];fontFamily=Roboto;fontSource=https%3A%2F%2Ffonts.googleapis.com%2Fcss%3Ffamily%3DRoboto;labelBorderColor=default;" vertex="1" connectable="0" parent="nm805aZOPaHZjVTuKpFu-26">
          <mxGeometry x="-0.0793" y="2" relative="1" as="geometry">
            <mxPoint x="-2" y="-4" as="offset" />
          </mxGeometry>
        </mxCell>
        <mxCell id="nm805aZOPaHZjVTuKpFu-28" style="edgeStyle=orthogonalEdgeStyle;rounded=0;orthogonalLoop=1;jettySize=auto;html=1;exitX=0;exitY=0.5;exitDx=0;exitDy=0;entryX=0;entryY=0.5;entryDx=0;entryDy=0;fontFamily=Roboto;fontSource=https%3A%2F%2Ffonts.googleapis.com%2Fcss%3Ffamily%3DRoboto;strokeColor=#6666FF;" edge="1" parent="1" source="nm805aZOPaHZjVTuKpFu-24" target="nm805aZOPaHZjVTuKpFu-7">
          <mxGeometry relative="1" as="geometry">
            <Array as="points">
              <mxPoint x="270" y="180" />
              <mxPoint x="270" y="100" />
            </Array>
          </mxGeometry>
        </mxCell>
        <mxCell id="nm805aZOPaHZjVTuKpFu-29" value="&lt;div&gt;No&lt;/div&gt;" style="edgeLabel;html=1;align=center;verticalAlign=middle;resizable=0;points=[];fontFamily=Roboto;fontSource=https%3A%2F%2Ffonts.googleapis.com%2Fcss%3Ffamily%3DRoboto;labelBorderColor=default;" vertex="1" connectable="0" parent="nm805aZOPaHZjVTuKpFu-28">
          <mxGeometry x="-0.6734" y="-1" relative="1" as="geometry">
            <mxPoint x="9" y="1" as="offset" />
          </mxGeometry>
        </mxCell>
        <mxCell id="nm805aZOPaHZjVTuKpFu-24" value="&lt;div&gt; Feasible by consensus&lt;br&gt;&lt;/div&gt;" style="rhombus;whiteSpace=wrap;html=1;fontFamily=Roboto;fontSource=https%3A%2F%2Ffonts.googleapis.com%2Fcss%3Ffamily%3DRoboto;fillColor=#dae8fc;strokeColor=#6c8ebf;" vertex="1" parent="1">
          <mxGeometry x="354" y="150" width="120" height="60" as="geometry" />
        </mxCell>
        <mxCell id="nm805aZOPaHZjVTuKpFu-48" style="edgeStyle=orthogonalEdgeStyle;rounded=0;orthogonalLoop=1;jettySize=auto;html=1;exitX=0.5;exitY=1;exitDx=0;exitDy=0;entryX=0.5;entryY=0;entryDx=0;entryDy=0;fontFamily=Roboto;fontSource=https%3A%2F%2Ffonts.googleapis.com%2Fcss%3Ffamily%3DRoboto;strokeColor=#6666FF;" edge="1" parent="1" source="nm805aZOPaHZjVTuKpFu-42" target="nm805aZOPaHZjVTuKpFu-47">
          <mxGeometry relative="1" as="geometry">
            <mxPoint x="420" y="861" as="targetPoint" />
            <Array as="points">
              <mxPoint x="324" y="840" />
              <mxPoint x="420" y="840" />
            </Array>
          </mxGeometry>
        </mxCell>
        <mxCell id="nm805aZOPaHZjVTuKpFu-42" value="HE workflow PCB manufactured" style="rounded=0;whiteSpace=wrap;html=1;fontFamily=Roboto;fontSource=https%3A%2F%2Ffonts.googleapis.com%2Fcss%3Ffamily%3DRoboto;fillColor=#ffe6cc;strokeColor=#d79b00;" vertex="1" parent="1">
          <mxGeometry x="264" y="761" width="120" height="60" as="geometry" />
        </mxCell>
        <mxCell id="nm805aZOPaHZjVTuKpFu-74" style="edgeStyle=orthogonalEdgeStyle;rounded=0;orthogonalLoop=1;jettySize=auto;html=1;exitX=0.5;exitY=1;exitDx=0;exitDy=0;entryX=0.5;entryY=0;entryDx=0;entryDy=0;fontFamily=Roboto;fontSource=https%3A%2F%2Ffonts.googleapis.com%2Fcss%3Ffamily%3DRoboto;strokeColor=#6666FF;" edge="1" parent="1" source="nm805aZOPaHZjVTuKpFu-47" target="nm805aZOPaHZjVTuKpFu-66">
          <mxGeometry relative="1" as="geometry" />
        </mxCell>
        <mxCell id="nm805aZOPaHZjVTuKpFu-75" value="Yes" style="edgeLabel;html=1;align=center;verticalAlign=middle;resizable=0;points=[];fontFamily=Roboto;fontSource=https%3A%2F%2Ffonts.googleapis.com%2Fcss%3Ffamily%3DRoboto;labelBorderColor=default;" vertex="1" connectable="0" parent="nm805aZOPaHZjVTuKpFu-74">
          <mxGeometry x="-0.3143" y="-1" relative="1" as="geometry">
            <mxPoint x="1" as="offset" />
          </mxGeometry>
        </mxCell>
        <mxCell id="nm805aZOPaHZjVTuKpFu-86" style="edgeStyle=orthogonalEdgeStyle;rounded=0;orthogonalLoop=1;jettySize=auto;html=1;exitX=1;exitY=0.5;exitDx=0;exitDy=0;entryX=1;entryY=0.5;entryDx=0;entryDy=0;fontFamily=Roboto;fontSource=https%3A%2F%2Ffonts.googleapis.com%2Fcss%3Ffamily%3DRoboto;strokeColor=#6666FF;" edge="1" parent="1" source="nm805aZOPaHZjVTuKpFu-47" target="nm805aZOPaHZjVTuKpFu-60">
          <mxGeometry relative="1" as="geometry">
            <Array as="points">
              <mxPoint x="600" y="890" />
              <mxPoint x="600" y="521" />
            </Array>
          </mxGeometry>
        </mxCell>
        <mxCell id="nm805aZOPaHZjVTuKpFu-92" value="No" style="edgeLabel;html=1;align=center;verticalAlign=middle;resizable=0;points=[];fontFamily=Roboto;fontSource=https%3A%2F%2Ffonts.googleapis.com%2Fcss%3Ffamily%3DRoboto;labelBorderColor=default;" vertex="1" connectable="0" parent="nm805aZOPaHZjVTuKpFu-86">
          <mxGeometry x="-0.8872" y="-1" relative="1" as="geometry">
            <mxPoint x="-4" y="-1" as="offset" />
          </mxGeometry>
        </mxCell>
        <mxCell id="nm805aZOPaHZjVTuKpFu-47" value="&lt;div&gt;ES HIL &amp;amp; SIL&lt;/div&gt;&lt;div&gt;Pass&lt;br&gt;&lt;/div&gt;" style="rhombus;whiteSpace=wrap;html=1;fontFamily=Roboto;fontSource=https%3A%2F%2Ffonts.googleapis.com%2Fcss%3Ffamily%3DRoboto;fillColor=#d5e8d4;strokeColor=#82b366;" vertex="1" parent="1">
          <mxGeometry x="360" y="860" width="120" height="60" as="geometry" />
        </mxCell>
        <mxCell id="nm805aZOPaHZjVTuKpFu-76" style="edgeStyle=orthogonalEdgeStyle;rounded=0;orthogonalLoop=1;jettySize=auto;html=1;exitX=0.5;exitY=1;exitDx=0;exitDy=0;entryX=0.5;entryY=0;entryDx=0;entryDy=0;fontFamily=Roboto;fontSource=https%3A%2F%2Ffonts.googleapis.com%2Fcss%3Ffamily%3DRoboto;strokeColor=#6666FF;" edge="1" parent="1" source="nm805aZOPaHZjVTuKpFu-50" target="nm805aZOPaHZjVTuKpFu-71">
          <mxGeometry relative="1" as="geometry" />
        </mxCell>
        <mxCell id="nm805aZOPaHZjVTuKpFu-50" value="&lt;div&gt;&lt;font data-font-src=&quot;https://fonts.googleapis.com/css?family=JetBrains+Mono&quot;&gt;README.md&lt;/font&gt;&lt;font data-font-src=&quot;https://fonts.googleapis.com/css?family=Roboto&quot;&gt; docs completed&lt;/font&gt;&lt;font data-font-src=&quot;https://fonts.googleapis.com/css?family=Roboto&quot;&gt;&lt;br&gt;&lt;/font&gt;&lt;/div&gt;&lt;div&gt;&lt;font data-font-src=&quot;https://fonts.googleapis.com/css?family=Roboto&quot;&gt;(GitHub release)&lt;/font&gt;&lt;/div&gt;" style="rounded=0;whiteSpace=wrap;html=1;fontFamily=Roboto;fontSource=https%3A%2F%2Ffonts.googleapis.com%2Fcss%3Ffamily%3DRoboto;fillColor=#dae8fc;strokeColor=#6c8ebf;" vertex="1" parent="1">
          <mxGeometry x="360" y="1040" width="120" height="60" as="geometry" />
        </mxCell>
        <mxCell id="nm805aZOPaHZjVTuKpFu-56" style="edgeStyle=orthogonalEdgeStyle;rounded=0;orthogonalLoop=1;jettySize=auto;html=1;exitX=0.5;exitY=1;exitDx=0;exitDy=0;entryX=0.5;entryY=0;entryDx=0;entryDy=0;fontFamily=Roboto;fontSource=https%3A%2F%2Ffonts.googleapis.com%2Fcss%3Ffamily%3DRoboto;strokeColor=#6666FF;" edge="1" parent="1" source="nm805aZOPaHZjVTuKpFu-60" target="nm805aZOPaHZjVTuKpFu-4">
          <mxGeometry relative="1" as="geometry">
            <Array as="points">
              <mxPoint x="414" y="581" />
              <mxPoint x="324" y="581" />
            </Array>
          </mxGeometry>
        </mxCell>
        <mxCell id="nm805aZOPaHZjVTuKpFu-57" style="edgeStyle=orthogonalEdgeStyle;rounded=0;orthogonalLoop=1;jettySize=auto;html=1;exitX=0.5;exitY=1;exitDx=0;exitDy=0;entryX=0.5;entryY=0;entryDx=0;entryDy=0;fontFamily=Roboto;fontSource=https%3A%2F%2Ffonts.googleapis.com%2Fcss%3Ffamily%3DRoboto;strokeColor=#6666FF;" edge="1" parent="1" source="nm805aZOPaHZjVTuKpFu-60" target="nm805aZOPaHZjVTuKpFu-10">
          <mxGeometry relative="1" as="geometry">
            <Array as="points">
              <mxPoint x="414" y="581" />
              <mxPoint x="504" y="581" />
            </Array>
          </mxGeometry>
        </mxCell>
        <mxCell id="nm805aZOPaHZjVTuKpFu-77" value="Yes" style="edgeLabel;html=1;align=center;verticalAlign=middle;resizable=0;points=[];fontFamily=Roboto;fontSource=https%3A%2F%2Ffonts.googleapis.com%2Fcss%3Ffamily%3DRoboto;labelBorderColor=default;" vertex="1" connectable="0" parent="nm805aZOPaHZjVTuKpFu-57">
          <mxGeometry x="-0.8128" y="1" relative="1" as="geometry">
            <mxPoint x="-1" as="offset" />
          </mxGeometry>
        </mxCell>
        <mxCell id="nm805aZOPaHZjVTuKpFu-53" value="&lt;div&gt;&lt;font style=&quot;font-size: 12px;&quot;&gt;Stakeholders&#39;&lt;/font&gt;&lt;/div&gt;&lt;div&gt;&lt;font style=&quot;font-size: 12px;&quot;&gt;glassbox specs&lt;/font&gt;&lt;/div&gt;" style="shape=parallelogram;perimeter=parallelogramPerimeter;whiteSpace=wrap;html=1;fixedSize=1;fontFamily=Roboto;fontSource=https%3A%2F%2Ffonts.googleapis.com%2Fcss%3Ffamily%3DRoboto;fillColor=#fff2cc;strokeColor=#d6b656;" vertex="1" parent="1">
          <mxGeometry x="354" y="411" width="120" height="60" as="geometry" />
        </mxCell>
        <mxCell id="nm805aZOPaHZjVTuKpFu-61" value="" style="edgeStyle=orthogonalEdgeStyle;rounded=0;orthogonalLoop=1;jettySize=auto;html=1;exitX=0.5;exitY=1;exitDx=0;exitDy=0;entryX=0.5;entryY=0;entryDx=0;entryDy=0;fontFamily=Roboto;fontSource=https%3A%2F%2Ffonts.googleapis.com%2Fcss%3Ffamily%3DRoboto;" edge="1" parent="1" source="nm805aZOPaHZjVTuKpFu-53" target="nm805aZOPaHZjVTuKpFu-60">
          <mxGeometry relative="1" as="geometry">
            <mxPoint x="414" y="490" as="sourcePoint" />
            <mxPoint x="324" y="590" as="targetPoint" />
          </mxGeometry>
        </mxCell>
        <mxCell id="nm805aZOPaHZjVTuKpFu-62" value="" style="edgeStyle=orthogonalEdgeStyle;rounded=0;orthogonalLoop=1;jettySize=auto;html=1;exitX=0.5;exitY=1;exitDx=0;exitDy=0;entryX=0.5;entryY=0;entryDx=0;entryDy=0;fontFamily=Roboto;fontSource=https%3A%2F%2Ffonts.googleapis.com%2Fcss%3Ffamily%3DRoboto;strokeColor=#6666FF;" edge="1" parent="1" source="nm805aZOPaHZjVTuKpFu-53" target="nm805aZOPaHZjVTuKpFu-60">
          <mxGeometry relative="1" as="geometry">
            <mxPoint x="414" y="490" as="sourcePoint" />
            <mxPoint x="504" y="590" as="targetPoint" />
          </mxGeometry>
        </mxCell>
        <mxCell id="nm805aZOPaHZjVTuKpFu-93" style="edgeStyle=orthogonalEdgeStyle;rounded=0;orthogonalLoop=1;jettySize=auto;html=1;exitX=0;exitY=0.5;exitDx=0;exitDy=0;entryX=0;entryY=0.5;entryDx=0;entryDy=0;fontFamily=Roboto;fontSource=https%3A%2F%2Ffonts.googleapis.com%2Fcss%3Ffamily%3DRoboto;strokeColor=#6666FF;" edge="1" parent="1" source="nm805aZOPaHZjVTuKpFu-60" target="nm805aZOPaHZjVTuKpFu-53">
          <mxGeometry relative="1" as="geometry">
            <Array as="points">
              <mxPoint x="230" y="521" />
              <mxPoint x="230" y="441" />
            </Array>
          </mxGeometry>
        </mxCell>
        <mxCell id="nm805aZOPaHZjVTuKpFu-95" value="No" style="edgeLabel;html=1;align=center;verticalAlign=middle;resizable=0;points=[];fontFamily=Roboto;fontSource=https%3A%2F%2Ffonts.googleapis.com%2Fcss%3Ffamily%3DRoboto;labelBorderColor=default;" vertex="1" connectable="0" parent="nm805aZOPaHZjVTuKpFu-93">
          <mxGeometry x="-0.7988" y="-1" relative="1" as="geometry">
            <mxPoint as="offset" />
          </mxGeometry>
        </mxCell>
        <mxCell id="nm805aZOPaHZjVTuKpFu-60" value="&lt;div&gt; Feasible by consensus&lt;br&gt;&lt;/div&gt;" style="rhombus;whiteSpace=wrap;html=1;fontFamily=Roboto;fontSource=https%3A%2F%2Ffonts.googleapis.com%2Fcss%3Ffamily%3DRoboto;fillColor=#d5e8d4;strokeColor=#82b366;" vertex="1" parent="1">
          <mxGeometry x="354" y="491" width="120" height="60" as="geometry" />
        </mxCell>
        <mxCell id="nm805aZOPaHZjVTuKpFu-72" style="edgeStyle=orthogonalEdgeStyle;rounded=0;orthogonalLoop=1;jettySize=auto;html=1;exitX=0.5;exitY=1;exitDx=0;exitDy=0;entryX=0.5;entryY=0;entryDx=0;entryDy=0;fontFamily=Roboto;fontSource=https%3A%2F%2Ffonts.googleapis.com%2Fcss%3Ffamily%3DRoboto;strokeColor=#6666FF;" edge="1" parent="1" source="nm805aZOPaHZjVTuKpFu-66" target="nm805aZOPaHZjVTuKpFu-50">
          <mxGeometry relative="1" as="geometry" />
        </mxCell>
        <mxCell id="nm805aZOPaHZjVTuKpFu-73" value="Yes" style="edgeLabel;html=1;align=center;verticalAlign=middle;resizable=0;points=[];fontFamily=Roboto;fontSource=https%3A%2F%2Ffonts.googleapis.com%2Fcss%3Ffamily%3DRoboto;labelBorderColor=default;" vertex="1" connectable="0" parent="nm805aZOPaHZjVTuKpFu-72">
          <mxGeometry x="-0.2714" y="-2" relative="1" as="geometry">
            <mxPoint x="2" as="offset" />
          </mxGeometry>
        </mxCell>
        <mxCell id="nm805aZOPaHZjVTuKpFu-87" style="edgeStyle=orthogonalEdgeStyle;rounded=0;orthogonalLoop=1;jettySize=auto;html=1;exitX=1;exitY=0.5;exitDx=0;exitDy=0;entryX=1;entryY=0.5;entryDx=0;entryDy=0;fontFamily=Roboto;fontSource=https%3A%2F%2Ffonts.googleapis.com%2Fcss%3Ffamily%3DRoboto;strokeColor=#6666FF;" edge="1" parent="1" source="nm805aZOPaHZjVTuKpFu-66" target="nm805aZOPaHZjVTuKpFu-53">
          <mxGeometry relative="1" as="geometry">
            <Array as="points">
              <mxPoint x="640" y="980" />
              <mxPoint x="640" y="441" />
            </Array>
          </mxGeometry>
        </mxCell>
        <mxCell id="nm805aZOPaHZjVTuKpFu-91" value="No" style="edgeLabel;html=1;align=center;verticalAlign=middle;resizable=0;points=[];fontFamily=Roboto;fontSource=https%3A%2F%2Ffonts.googleapis.com%2Fcss%3Ffamily%3DRoboto;labelBorderColor=default;spacing=2;" vertex="1" connectable="0" parent="nm805aZOPaHZjVTuKpFu-87">
          <mxGeometry x="-0.9211" relative="1" as="geometry">
            <mxPoint x="-4" as="offset" />
          </mxGeometry>
        </mxCell>
        <mxCell id="nm805aZOPaHZjVTuKpFu-66" value="&lt;div&gt;Glassbox&lt;/div&gt;&lt;div&gt;specs met&lt;br&gt;&lt;/div&gt;" style="rhombus;whiteSpace=wrap;html=1;fontFamily=Roboto;fontSource=https%3A%2F%2Ffonts.googleapis.com%2Fcss%3Ffamily%3DRoboto;fillColor=#d5e8d4;strokeColor=#82b366;" vertex="1" parent="1">
          <mxGeometry x="360" y="950" width="120" height="60" as="geometry" />
        </mxCell>
        <mxCell id="nm805aZOPaHZjVTuKpFu-71" value="Full integration" style="rounded=1;whiteSpace=wrap;html=1;fontFamily=Roboto;fontSource=https%3A%2F%2Ffonts.googleapis.com%2Fcss%3Ffamily%3DRoboto;fillColor=#f8cecc;strokeColor=#b85450;" vertex="1" parent="1">
          <mxGeometry x="360" y="1120" width="120" height="30" as="geometry" />
        </mxCell>
      </root>
    </mxGraphModel>
  </diagram>
</mxfile>
